<?xml version="1.0" encoding="UTF-8"?>
<svg xmlns="http://www.w3.org/2000/svg" viewBox="0 0 72 84" fill="none">
  <defs>
    <linearGradient id="navG" x1="0" y1="0" x2="1" y2="0">
      <stop offset="0%" stop-color="#1A2E45"/>
      <stop offset="48%" stop-color="#1E3A52"/>
      <stop offset="52%" stop-color="#389680"/>
      <stop offset="100%" stop-color="#4BA08E"/>
    </linearGradient>
    <linearGradient id="navEdge" x1="0" y1="0" x2="1" y2="1">
      <stop offset="0%" stop-color="rgba(255,255,255,0.1)"/>
      <stop offset="50%" stop-color="rgba(255,255,255,0.02)"/>
      <stop offset="100%" stop-color="rgba(255,255,255,0.06)"/>
    </linearGradient>
  </defs>
  <path d="M36 4L6 17V41C6 57 19 72 36 80C53 72 66 57 66 41V17L36 4Z" fill="url(#navG)"/>
  <path d="M36 5.5L7.5 17.5V41C7.5 56 20 70.5 36 78.5C52 70.5 64.5 56 64.5 41V17.5L36 5.5Z" fill="none" stroke="url(#navEdge)" stroke-width="0.8"/>
  <line x1="36" y1="7" x2="36" y2="78" stroke="rgba(0,0,0,0.2)" stroke-width="0.8"/>
  <circle cx="36" cy="40" r="13" fill="none" stroke="rgba(255,255,255,0.6)" stroke-width="1.8"/>
  <line x1="36" y1="24" x2="36" y2="27" stroke="rgba(255,255,255,0.8)" stroke-width="1.8" stroke-linecap="round"/>
  <line x1="36" y1="53" x2="36" y2="56" stroke="rgba(255,255,255,0.8)" stroke-width="1.8" stroke-linecap="round"/>
  <line x1="20" y1="40" x2="23" y2="40" stroke="rgba(255,255,255,0.8)" stroke-width="1.8" stroke-linecap="round"/>
  <line x1="49" y1="40" x2="52" y2="40" stroke="rgba(255,255,255,0.8)" stroke-width="1.8" stroke-linecap="round"/>
  <path d="M36 26L40 40L36 54L32 40Z" fill="none" stroke="rgba(255,255,255,0.9)" stroke-width="1.8" stroke-linejoin="round"/>
  <path d="M36 26L40 40H32Z" fill="#fff"/>
  <circle cx="36" cy="40" r="2" fill="#fff"/>
</svg>
